<?xml version="1.0" encoding="UTF-8"?>
<svg xmlns="http://www.w3.org/2000/svg" xmlns:xlink="http://www.w3.org/1999/xlink" width="26px" height="25px" viewBox="0 0 26 25" version="1.1">
<g id="surface1">
<path style=" stroke:none;fill-rule:nonzero;fill:rgb(100%,100%,100%);fill-opacity:1;" d="M 25.617188 10.699219 L 23.792969 10.699219 L 23.792969 8.855469 C 23.792969 8.296875 23.324219 7.84375 22.742188 7.84375 L 21.507812 7.84375 C 21.410156 7.84375 21.316406 7.859375 21.226562 7.882812 L 21.226562 7.511719 C 21.226562 6.953125 20.757812 6.5 20.175781 6.5 L 18.136719 6.5 C 17.558594 6.5 17.085938 6.953125 17.085938 7.511719 L 17.085938 10.699219 L 8.910156 10.699219 L 8.910156 7.511719 C 8.910156 6.953125 8.441406 6.5 7.863281 6.5 L 5.824219 6.5 C 5.242188 6.5 4.773438 6.953125 4.773438 7.511719 L 4.773438 7.882812 C 4.679688 7.859375 4.585938 7.84375 4.492188 7.84375 L 3.257812 7.84375 C 2.675781 7.84375 2.207031 8.296875 2.207031 8.855469 L 2.207031 10.699219 L 0.382812 10.699219 C 0.171875 10.699219 0 10.863281 0 11.066406 L 0 13.933594 C 0 14.136719 0.171875 14.300781 0.382812 14.300781 L 2.207031 14.300781 L 2.207031 16.144531 C 2.207031 16.703125 2.675781 17.15625 3.257812 17.15625 L 4.492188 17.15625 C 4.589844 17.15625 4.683594 17.140625 4.773438 17.117188 L 4.773438 17.488281 C 4.773438 18.046875 5.242188 18.5 5.824219 18.5 L 7.863281 18.5 C 8.441406 18.5 8.910156 18.046875 8.910156 17.488281 L 8.910156 14.300781 L 17.089844 14.300781 L 17.089844 17.488281 C 17.089844 18.046875 17.558594 18.5 18.136719 18.5 L 20.175781 18.5 C 20.757812 18.5 21.226562 18.046875 21.226562 17.488281 L 21.226562 17.117188 C 21.316406 17.140625 21.410156 17.15625 21.507812 17.15625 L 22.746094 17.15625 C 23.324219 17.15625 23.792969 16.703125 23.792969 16.144531 L 23.792969 14.300781 L 25.617188 14.300781 C 25.828125 14.300781 26 14.136719 26 13.933594 L 26 11.066406 C 26 10.863281 25.828125 10.699219 25.617188 10.699219 Z M 2.207031 13.5625 L 0.769531 13.5625 L 0.769531 11.4375 L 2.207031 11.4375 Z M 4.773438 16.144531 C 4.773438 16.292969 4.644531 16.414062 4.492188 16.414062 L 3.257812 16.414062 C 3.101562 16.414062 2.972656 16.292969 2.972656 16.144531 L 2.972656 8.855469 C 2.972656 8.707031 3.101562 8.585938 3.257812 8.585938 L 4.492188 8.585938 C 4.644531 8.585938 4.773438 8.707031 4.773438 8.855469 Z M 8.144531 11.066406 L 8.144531 17.488281 C 8.144531 17.636719 8.015625 17.757812 7.863281 17.757812 L 5.824219 17.757812 C 5.667969 17.757812 5.539062 17.636719 5.539062 17.488281 L 5.539062 7.511719 C 5.539062 7.363281 5.667969 7.242188 5.824219 7.242188 L 7.863281 7.242188 C 8.015625 7.242188 8.144531 7.363281 8.144531 7.511719 Z M 17.085938 13.5625 L 8.910156 13.5625 L 8.910156 11.4375 L 17.085938 11.4375 Z M 20.460938 8.855469 L 20.460938 17.488281 C 20.460938 17.636719 20.332031 17.757812 20.175781 17.757812 L 18.136719 17.757812 C 17.984375 17.757812 17.855469 17.636719 17.855469 17.488281 L 17.855469 7.511719 C 17.855469 7.363281 17.984375 7.242188 18.136719 7.242188 L 20.175781 7.242188 C 20.332031 7.242188 20.460938 7.363281 20.460938 7.511719 Z M 23.027344 11.066406 L 23.027344 16.144531 C 23.027344 16.292969 22.898438 16.414062 22.746094 16.414062 L 21.507812 16.414062 C 21.355469 16.414062 21.226562 16.292969 21.226562 16.144531 L 21.226562 8.855469 C 21.226562 8.707031 21.355469 8.585938 21.507812 8.585938 L 22.746094 8.585938 C 22.898438 8.585938 23.027344 8.707031 23.027344 8.855469 Z M 25.230469 13.5625 L 23.792969 13.5625 L 23.792969 11.4375 L 25.230469 11.4375 Z M 25.230469 13.5625 "/>
</g>
</svg>
