<?xml version="1.0" encoding="UTF-8"?>
<svg xmlns="http://www.w3.org/2000/svg" xmlns:xlink="http://www.w3.org/1999/xlink" width="26px" height="25px" viewBox="0 0 26 25" version="1.1">
<g id="surface1">
<path style=" stroke:none;fill-rule:nonzero;fill:rgb(100%,100%,100%);fill-opacity:1;" d="M 15.828125 1.121094 L 24.125 9.101562 L 24.125 9.105469 C 25.191406 10.128906 25.472656 10.949219 25.238281 11.609375 C 24.988281 12.308594 24.246094 12.675781 23.265625 12.839844 L 23.132812 12.851562 L 22.917969 12.851562 L 22.917969 23.34375 C 22.917969 23.796875 22.722656 24.210938 22.410156 24.511719 C 22.101562 24.8125 21.667969 25 21.195312 25 L 15.210938 25 L 15.210938 16.238281 L 10.789062 16.238281 L 10.789062 25 L 4.804688 25 C 4.332031 25 3.898438 24.8125 3.589844 24.511719 C 3.277344 24.210938 3.082031 23.796875 3.082031 23.34375 L 3.082031 12.851562 L 2.867188 12.851562 L 2.734375 12.839844 C 1.753906 12.675781 1.011719 12.308594 0.761719 11.609375 C 0.527344 10.949219 0.808594 10.128906 1.875 9.105469 L 1.875 9.101562 L 10.171875 1.121094 C 10.949219 0.375 11.976562 0 13 0 C 14.023438 0 15.050781 0.375 15.828125 1.121094 Z M 23.019531 10.164062 L 23.019531 10.167969 L 14.71875 2.1875 C 14.246094 1.734375 13.625 1.507812 13 1.507812 C 12.375 1.507812 11.753906 1.734375 11.28125 2.1875 L 2.980469 10.167969 L 2.980469 10.164062 C 2.40625 10.71875 2.203125 11.011719 2.242188 11.128906 C 2.269531 11.203125 2.539062 11.277344 2.933594 11.34375 L 4.648438 11.34375 L 4.648438 23.34375 C 4.648438 23.382812 4.667969 23.421875 4.695312 23.449219 C 4.722656 23.476562 4.761719 23.492188 4.804688 23.492188 L 9.222656 23.492188 L 9.222656 16.121094 C 9.222656 15.738281 9.386719 15.390625 9.648438 15.140625 C 9.910156 14.886719 10.269531 14.730469 10.667969 14.730469 L 15.332031 14.730469 C 15.730469 14.730469 16.09375 14.886719 16.351562 15.140625 C 16.613281 15.390625 16.777344 15.738281 16.777344 16.121094 L 16.777344 23.492188 L 21.195312 23.492188 C 21.238281 23.492188 21.277344 23.476562 21.304688 23.449219 C 21.335938 23.421875 21.351562 23.382812 21.351562 23.34375 L 21.351562 11.34375 L 23.066406 11.34375 C 23.460938 11.277344 23.730469 11.203125 23.757812 11.128906 C 23.796875 11.011719 23.59375 10.71875 23.019531 10.164062 Z M 23.019531 10.164062 "/>
</g>
</svg>
