<?xml version="1.0" encoding="UTF-8"?>
<svg xmlns="http://www.w3.org/2000/svg" xmlns:xlink="http://www.w3.org/1999/xlink" width="26px" height="25px" viewBox="0 0 26 25" version="1.1">
<g id="surface1">
<path style=" stroke:none;fill-rule:evenodd;fill:rgb(100%,100%,100%);fill-opacity:1;" d="M 23.449219 19.9375 C 25.050781 17.859375 26 15.285156 26 12.5 C 26 5.597656 20.179688 0 13 0 C 5.820312 0 0 5.597656 0 12.5 C 0 19.402344 5.820312 25 13 25 C 16.765625 25 20.160156 23.460938 22.535156 20.996094 C 22.859375 20.660156 23.164062 20.304688 23.449219 19.9375 Z M 22.730469 18.75 C 23.972656 16.960938 24.699219 14.8125 24.699219 12.5 C 24.699219 6.285156 19.460938 1.25 13 1.25 C 6.539062 1.25 1.300781 6.285156 1.300781 12.5 C 1.300781 14.8125 2.027344 16.960938 3.269531 18.75 C 4.839844 16.496094 7.234375 14.816406 10.042969 14.113281 C 8.6875 13.210938 7.800781 11.703125 7.800781 10 C 7.800781 7.238281 10.128906 5 13 5 C 15.871094 5 18.199219 7.238281 18.199219 10 C 18.199219 11.703125 17.3125 13.210938 15.957031 14.113281 C 18.765625 14.816406 21.160156 16.496094 22.730469 18.75 Z M 21.890625 19.8125 C 20.066406 16.925781 16.769531 15 13 15 C 9.230469 15 5.933594 16.925781 4.109375 19.8125 C 6.253906 22.222656 9.441406 23.75 13 23.75 C 16.558594 23.75 19.746094 22.222656 21.890625 19.8125 Z M 13 13.75 C 15.152344 13.75 16.898438 12.070312 16.898438 10 C 16.898438 7.929688 15.152344 6.25 13 6.25 C 10.847656 6.25 9.101562 7.929688 9.101562 10 C 9.101562 12.070312 10.847656 13.75 13 13.75 Z M 13 13.75 "/>
</g>
</svg>
